<mxfile host="app.diagrams.net" modified="2024-01-29T06:36:15.144Z" agent="Mozilla/5.0 (Windows NT 10.0; Win64; x64) AppleWebKit/537.36 (KHTML, like Gecko) Chrome/120.0.0.0 Safari/537.36" etag="v327vFLzJq9zecRpfJyJ" version="23.0.2" type="device">
  <diagram id="HCEpaZUpJWZ4N5DwZ5oD" name="第 1 页">
    <mxGraphModel dx="774" dy="498" grid="1" gridSize="10" guides="1" tooltips="1" connect="1" arrows="1" fold="1" page="1" pageScale="1" pageWidth="827" pageHeight="1169" math="0" shadow="0">
      <root>
        <mxCell id="0" />
        <mxCell id="1" parent="0" />
        <mxCell id="p-2lwII1HiTsq76X7f7h-1" value="" style="endArrow=classic;html=1;rounded=0;strokeWidth=2;" parent="1" edge="1">
          <mxGeometry width="50" height="50" relative="1" as="geometry">
            <mxPoint x="80" y="440" as="sourcePoint" />
            <mxPoint x="720" y="440" as="targetPoint" />
          </mxGeometry>
        </mxCell>
        <mxCell id="p-2lwII1HiTsq76X7f7h-2" value="" style="endArrow=none;html=1;rounded=0;strokeWidth=2;" parent="1" source="p-2lwII1HiTsq76X7f7h-6" edge="1">
          <mxGeometry width="50" height="50" relative="1" as="geometry">
            <mxPoint x="400" y="440" as="sourcePoint" />
            <mxPoint x="400" y="240" as="targetPoint" />
          </mxGeometry>
        </mxCell>
        <mxCell id="p-2lwII1HiTsq76X7f7h-3" value="" style="endArrow=none;dashed=1;html=1;rounded=0;" parent="1" source="p-2lwII1HiTsq76X7f7h-8" edge="1">
          <mxGeometry width="50" height="50" relative="1" as="geometry">
            <mxPoint x="280" y="440" as="sourcePoint" />
            <mxPoint x="280" y="240" as="targetPoint" />
          </mxGeometry>
        </mxCell>
        <mxCell id="p-2lwII1HiTsq76X7f7h-4" value="" style="endArrow=none;dashed=1;html=1;rounded=0;" parent="1" source="p-2lwII1HiTsq76X7f7h-10" edge="1">
          <mxGeometry width="50" height="50" relative="1" as="geometry">
            <mxPoint x="520" y="440" as="sourcePoint" />
            <mxPoint x="520" y="240" as="targetPoint" />
          </mxGeometry>
        </mxCell>
        <mxCell id="p-2lwII1HiTsq76X7f7h-5" value="" style="endArrow=none;html=1;rounded=0;strokeWidth=2;" parent="1" target="p-2lwII1HiTsq76X7f7h-6" edge="1">
          <mxGeometry width="50" height="50" relative="1" as="geometry">
            <mxPoint x="400" y="440" as="sourcePoint" />
            <mxPoint x="400" y="240" as="targetPoint" />
          </mxGeometry>
        </mxCell>
        <mxCell id="p-2lwII1HiTsq76X7f7h-6" value="" style="shape=waypoint;sketch=0;fillStyle=solid;size=6;pointerEvents=1;points=[];fillColor=none;resizable=0;rotatable=0;perimeter=centerPerimeter;snapToPoint=1;strokeWidth=2;" parent="1" vertex="1">
          <mxGeometry x="390" y="410" width="20" height="20" as="geometry" />
        </mxCell>
        <mxCell id="p-2lwII1HiTsq76X7f7h-7" value="" style="endArrow=none;dashed=1;html=1;rounded=0;" parent="1" target="p-2lwII1HiTsq76X7f7h-8" edge="1">
          <mxGeometry width="50" height="50" relative="1" as="geometry">
            <mxPoint x="280" y="440" as="sourcePoint" />
            <mxPoint x="280" y="240" as="targetPoint" />
          </mxGeometry>
        </mxCell>
        <mxCell id="p-2lwII1HiTsq76X7f7h-8" value="" style="shape=waypoint;sketch=0;fillStyle=solid;size=6;pointerEvents=1;points=[];fillColor=none;resizable=0;rotatable=0;perimeter=centerPerimeter;snapToPoint=1;strokeWidth=2;" parent="1" vertex="1">
          <mxGeometry x="270" y="380" width="20" height="20" as="geometry" />
        </mxCell>
        <mxCell id="p-2lwII1HiTsq76X7f7h-9" value="" style="endArrow=none;dashed=1;html=1;rounded=0;" parent="1" target="p-2lwII1HiTsq76X7f7h-10" edge="1">
          <mxGeometry width="50" height="50" relative="1" as="geometry">
            <mxPoint x="520" y="440" as="sourcePoint" />
            <mxPoint x="520" y="240" as="targetPoint" />
          </mxGeometry>
        </mxCell>
        <mxCell id="p-2lwII1HiTsq76X7f7h-10" value="" style="shape=waypoint;sketch=0;fillStyle=solid;size=6;pointerEvents=1;points=[];fillColor=none;resizable=0;rotatable=0;perimeter=centerPerimeter;snapToPoint=1;strokeWidth=2;" parent="1" vertex="1">
          <mxGeometry x="510" y="380" width="20" height="20" as="geometry" />
        </mxCell>
        <mxCell id="p-2lwII1HiTsq76X7f7h-11" value="" style="shape=waypoint;sketch=0;fillStyle=solid;size=6;pointerEvents=1;points=[];fillColor=none;resizable=0;rotatable=0;perimeter=centerPerimeter;snapToPoint=1;strokeWidth=2;" parent="1" vertex="1">
          <mxGeometry x="310" y="340" width="20" height="20" as="geometry" />
        </mxCell>
        <mxCell id="p-2lwII1HiTsq76X7f7h-12" value="" style="shape=waypoint;sketch=0;fillStyle=solid;size=6;pointerEvents=1;points=[];fillColor=none;resizable=0;rotatable=0;perimeter=centerPerimeter;snapToPoint=1;strokeWidth=2;" parent="1" vertex="1">
          <mxGeometry x="470" y="310" width="20" height="20" as="geometry" />
        </mxCell>
        <mxCell id="p-2lwII1HiTsq76X7f7h-13" value="" style="endArrow=none;html=1;rounded=0;exitX=0.75;exitY=0.9;exitDx=0;exitDy=0;exitPerimeter=0;entryX=0.3;entryY=0.6;entryDx=0;entryDy=0;entryPerimeter=0;strokeWidth=2;" parent="1" source="p-2lwII1HiTsq76X7f7h-11" target="p-2lwII1HiTsq76X7f7h-12" edge="1">
          <mxGeometry width="50" height="50" relative="1" as="geometry">
            <mxPoint x="370" y="390" as="sourcePoint" />
            <mxPoint x="420" y="340" as="targetPoint" />
          </mxGeometry>
        </mxCell>
        <mxCell id="p-2lwII1HiTsq76X7f7h-14" value="" style="endArrow=classic;startArrow=classic;html=1;rounded=0;strokeWidth=2;" parent="1" edge="1">
          <mxGeometry width="50" height="50" relative="1" as="geometry">
            <mxPoint x="280" y="410" as="sourcePoint" />
            <mxPoint x="400" y="410" as="targetPoint" />
          </mxGeometry>
        </mxCell>
        <mxCell id="p-2lwII1HiTsq76X7f7h-15" value="" style="endArrow=classic;startArrow=classic;html=1;rounded=0;strokeWidth=2;" parent="1" edge="1">
          <mxGeometry width="50" height="50" relative="1" as="geometry">
            <mxPoint x="400" y="409" as="sourcePoint" />
            <mxPoint x="520" y="409" as="targetPoint" />
            <Array as="points">
              <mxPoint x="460" y="409" />
            </Array>
          </mxGeometry>
        </mxCell>
        <mxCell id="p-2lwII1HiTsq76X7f7h-16" value="" style="shape=waypoint;sketch=0;fillStyle=solid;size=6;pointerEvents=1;points=[];fillColor=none;resizable=0;rotatable=0;perimeter=centerPerimeter;snapToPoint=1;strokeWidth=2;" parent="1" vertex="1">
          <mxGeometry x="150" y="410" width="20" height="20" as="geometry" />
        </mxCell>
        <mxCell id="p-2lwII1HiTsq76X7f7h-17" value="" style="shape=waypoint;sketch=0;fillStyle=solid;size=6;pointerEvents=1;points=[];fillColor=none;resizable=0;rotatable=0;perimeter=centerPerimeter;snapToPoint=1;strokeWidth=2;" parent="1" vertex="1">
          <mxGeometry x="100" y="340" width="20" height="20" as="geometry" />
        </mxCell>
        <mxCell id="p-2lwII1HiTsq76X7f7h-18" value="" style="shape=waypoint;sketch=0;fillStyle=solid;size=6;pointerEvents=1;points=[];fillColor=none;resizable=0;rotatable=0;perimeter=centerPerimeter;snapToPoint=1;strokeWidth=2;" parent="1" vertex="1">
          <mxGeometry x="130" y="260" width="20" height="20" as="geometry" />
        </mxCell>
        <mxCell id="p-2lwII1HiTsq76X7f7h-19" value="" style="shape=waypoint;sketch=0;fillStyle=solid;size=6;pointerEvents=1;points=[];fillColor=none;resizable=0;rotatable=0;perimeter=centerPerimeter;snapToPoint=1;strokeWidth=2;" parent="1" vertex="1">
          <mxGeometry x="210" y="310" width="20" height="20" as="geometry" />
        </mxCell>
        <mxCell id="p-2lwII1HiTsq76X7f7h-20" value="" style="endArrow=none;html=1;rounded=0;exitX=0.475;exitY=0.975;exitDx=0;exitDy=0;exitPerimeter=0;entryX=0.2;entryY=-0.225;entryDx=0;entryDy=0;entryPerimeter=0;strokeWidth=2;" parent="1" source="p-2lwII1HiTsq76X7f7h-18" target="p-2lwII1HiTsq76X7f7h-19" edge="1">
          <mxGeometry width="50" height="50" relative="1" as="geometry">
            <mxPoint x="180" y="290" as="sourcePoint" />
            <mxPoint x="230" y="240" as="targetPoint" />
          </mxGeometry>
        </mxCell>
        <mxCell id="p-2lwII1HiTsq76X7f7h-21" value="" style="shape=waypoint;sketch=0;fillStyle=solid;size=6;pointerEvents=1;points=[];fillColor=none;resizable=0;rotatable=0;perimeter=centerPerimeter;snapToPoint=1;strokeWidth=2;" parent="1" vertex="1">
          <mxGeometry x="550" y="280" width="20" height="20" as="geometry" />
        </mxCell>
        <mxCell id="p-2lwII1HiTsq76X7f7h-22" value="" style="endArrow=none;html=1;rounded=0;exitDx=0;exitDy=0;exitPerimeter=0;strokeWidth=2;" parent="1" source="p-2lwII1HiTsq76X7f7h-24" edge="1">
          <mxGeometry width="50" height="50" relative="1" as="geometry">
            <mxPoint x="600" y="310" as="sourcePoint" />
            <mxPoint x="610" y="380" as="targetPoint" />
          </mxGeometry>
        </mxCell>
        <mxCell id="p-2lwII1HiTsq76X7f7h-23" value="" style="endArrow=none;html=1;rounded=0;exitX=0.475;exitY=0.975;exitDx=0;exitDy=0;exitPerimeter=0;strokeWidth=2;" parent="1" source="p-2lwII1HiTsq76X7f7h-21" target="p-2lwII1HiTsq76X7f7h-24" edge="1">
          <mxGeometry width="50" height="50" relative="1" as="geometry">
            <mxPoint x="560" y="290" as="sourcePoint" />
            <mxPoint x="610" y="380" as="targetPoint" />
          </mxGeometry>
        </mxCell>
        <mxCell id="p-2lwII1HiTsq76X7f7h-24" value="" style="shape=waypoint;sketch=0;fillStyle=solid;size=6;pointerEvents=1;points=[];fillColor=none;resizable=0;rotatable=0;perimeter=centerPerimeter;snapToPoint=1;strokeWidth=2;" parent="1" vertex="1">
          <mxGeometry x="600" y="370" width="20" height="20" as="geometry" />
        </mxCell>
        <mxCell id="p-2lwII1HiTsq76X7f7h-25" value="" style="shape=waypoint;sketch=0;fillStyle=solid;size=6;pointerEvents=1;points=[];fillColor=none;resizable=0;rotatable=0;perimeter=centerPerimeter;snapToPoint=1;strokeWidth=2;" parent="1" vertex="1">
          <mxGeometry x="650" y="250" width="20" height="20" as="geometry" />
        </mxCell>
        <mxCell id="p-2lwII1HiTsq76X7f7h-26" value="" style="shape=curlyBracket;whiteSpace=wrap;html=1;rounded=1;labelPosition=left;verticalLabelPosition=middle;align=right;verticalAlign=middle;rotation=90;strokeWidth=2;" parent="1" vertex="1">
          <mxGeometry x="228.75" y="71.25" width="20" height="317.5" as="geometry" />
        </mxCell>
        <mxCell id="p-2lwII1HiTsq76X7f7h-27" value="" style="shape=curlyBracket;whiteSpace=wrap;html=1;rounded=1;labelPosition=left;verticalLabelPosition=middle;align=right;verticalAlign=middle;rotation=90;strokeWidth=2;" parent="1" vertex="1">
          <mxGeometry x="551.25" y="71.25" width="20" height="317.5" as="geometry" />
        </mxCell>
        <mxCell id="p-2lwII1HiTsq76X7f7h-28" value="&lt;font style=&quot;font-size: 20px;&quot; face=&quot;Times New Roman&quot;&gt;S&lt;sub&gt;1&lt;/sub&gt;&lt;/font&gt;" style="text;html=1;align=center;verticalAlign=middle;resizable=0;points=[];autosize=1;strokeColor=none;fillColor=none;" parent="1" vertex="1">
          <mxGeometry x="218.75" y="180" width="40" height="40" as="geometry" />
        </mxCell>
        <mxCell id="p-2lwII1HiTsq76X7f7h-29" value="&lt;font style=&quot;font-size: 20px;&quot; face=&quot;Times New Roman&quot;&gt;S&lt;/font&gt;&lt;font style=&quot;font-size: 16.6667px;&quot; face=&quot;Times New Roman&quot;&gt;&lt;sub&gt;2&lt;/sub&gt;&lt;/font&gt;" style="text;html=1;align=center;verticalAlign=middle;resizable=0;points=[];autosize=1;strokeColor=none;fillColor=none;" parent="1" vertex="1">
          <mxGeometry x="540" y="180" width="40" height="40" as="geometry" />
        </mxCell>
        <mxCell id="p-2lwII1HiTsq76X7f7h-30" value="" style="shape=curlyBracket;whiteSpace=wrap;html=1;rounded=1;labelPosition=left;verticalLabelPosition=middle;align=right;verticalAlign=middle;rotation=90;strokeWidth=2;" parent="1" vertex="1">
          <mxGeometry x="390" y="91.25" width="20" height="238.75" as="geometry" />
        </mxCell>
        <mxCell id="p-2lwII1HiTsq76X7f7h-31" value="&lt;span style=&quot;font-size: 20px;&quot;&gt;&lt;font data-font-src=&quot;https://fonts.googleapis.com/css?family=SimSun&quot; face=&quot;SimSun&quot;&gt;垂直带形区&lt;/font&gt;&lt;/span&gt;" style="text;html=1;align=center;verticalAlign=middle;resizable=0;points=[];autosize=1;strokeColor=none;fillColor=none;" parent="1" vertex="1">
          <mxGeometry x="340" y="160" width="120" height="40" as="geometry" />
        </mxCell>
        <mxCell id="p-2lwII1HiTsq76X7f7h-32" value="&lt;font face=&quot;Times New Roman&quot;&gt;&lt;span style=&quot;font-size: 20px;&quot;&gt;&amp;nbsp;d&lt;/span&gt;&lt;/font&gt;" style="text;html=1;align=center;verticalAlign=middle;resizable=0;points=[];autosize=1;strokeColor=none;fillColor=none;" parent="1" vertex="1">
          <mxGeometry x="315" y="380" width="40" height="40" as="geometry" />
        </mxCell>
        <mxCell id="p-2lwII1HiTsq76X7f7h-33" value="&lt;font face=&quot;Times New Roman&quot;&gt;&lt;span style=&quot;font-size: 20px;&quot;&gt;&amp;nbsp;d&lt;/span&gt;&lt;/font&gt;" style="text;html=1;align=center;verticalAlign=middle;resizable=0;points=[];autosize=1;strokeColor=none;fillColor=none;" parent="1" vertex="1">
          <mxGeometry x="438" y="379" width="40" height="40" as="geometry" />
        </mxCell>
        <mxCell id="p-2lwII1HiTsq76X7f7h-34" value="&lt;font face=&quot;Times New Roman&quot;&gt;&lt;span style=&quot;font-size: 20px;&quot;&gt;&amp;nbsp;d&lt;sub&gt;1&lt;/sub&gt;&lt;/span&gt;&lt;/font&gt;" style="text;html=1;align=center;verticalAlign=middle;resizable=0;points=[];autosize=1;strokeColor=none;fillColor=none;" parent="1" vertex="1">
          <mxGeometry x="160.75" y="264" width="50" height="40" as="geometry" />
        </mxCell>
        <mxCell id="p-2lwII1HiTsq76X7f7h-35" value="&lt;font face=&quot;Times New Roman&quot;&gt;&lt;span style=&quot;font-size: 20px;&quot;&gt;&amp;nbsp;d&lt;/span&gt;&lt;span style=&quot;font-size: 16.6667px;&quot;&gt;&lt;sub&gt;2&lt;/sub&gt;&lt;/span&gt;&lt;/font&gt;" style="text;html=1;align=center;verticalAlign=middle;resizable=0;points=[];autosize=1;strokeColor=none;fillColor=none;" parent="1" vertex="1">
          <mxGeometry x="573" y="311" width="50" height="40" as="geometry" />
        </mxCell>
        <mxCell id="p-2lwII1HiTsq76X7f7h-36" value="&lt;font face=&quot;Times New Roman&quot;&gt;&lt;span style=&quot;font-size: 20px;&quot;&gt;x&lt;/span&gt;&lt;/font&gt;" style="text;html=1;align=center;verticalAlign=middle;resizable=0;points=[];autosize=1;strokeColor=none;fillColor=none;" parent="1" vertex="1">
          <mxGeometry x="715" y="419" width="30" height="40" as="geometry" />
        </mxCell>
      </root>
    </mxGraphModel>
  </diagram>
</mxfile>
